<?xml version="1.0" standalone="no"?>
<!DOCTYPE svg PUBLIC "-//W3C//DTD SVG 20010904//EN"
 "http://www.w3.org/TR/2001/REC-SVG-20010904/DTD/svg10.dtd">
<svg version="1.0" xmlns="http://www.w3.org/2000/svg"
 width="256.000000pt" height="256.000000pt" viewBox="0 0 256.000000 256.000000"
 preserveAspectRatio="xMidYMid meet">
<metadata>
Created by potrace 1.14, written by Peter Selinger 2001-2017
</metadata>
<g transform="translate(0.000000,256.000000) scale(0.100000,-0.100000)"
fill="#000000" stroke="none">
<path d="M272 2233 c-19 -9 -41 -32 -52 -52 -17 -34 -18 -76 -18 -735 0 -384
3 -709 8 -721 8 -20 4 -27 -24 -48 -47 -37 -186 -223 -186 -251 0 -34 36 -74
78 -86 26 -8 401 -10 1222 -8 l1185 3 32 23 c48 34 54 81 17 130 -16 20 -34
43 -41 50 -7 7 -33 39 -57 71 -25 32 -56 65 -70 74 -21 14 -24 21 -16 46 4 16
8 342 8 723 0 653 -1 695 -19 729 -37 73 26 69 -1061 69 -879 0 -976 -2 -1006
-17z m1960 -115 c3 -7 4 -317 4 -688 l-1 -675 -953 -1 -952 -1 -4 21 c-4 19
-1 1347 2 1354 1 1 429 2 951 2 750 0 950 -3 953 -12z m36 -1494 c24 -17 52
-64 52 -89 0 -13 -40 -15 -339 -15 l-339 0 2 -32 1 -33 -360 0 -360 0 1 33 1
32 -343 0 c-282 0 -343 2 -347 14 -6 14 11 44 46 83 l20 22 971 1 c865 0 974
-2 994 -16z"/>
<path d="M1419 1837 c-13 -7 -34 -33 -46 -57 -30 -60 -153 -321 -153 -325 0
-1 -36 -78 -80 -169 -44 -92 -80 -178 -80 -191 0 -13 7 -31 16 -39 20 -20 68
-21 84 -1 22 27 340 709 340 730 0 43 -43 70 -81 52z"/>
<path d="M861 1733 c-27 -11 -296 -235 -307 -256 -24 -44 -1 -82 97 -162 13
-11 60 -50 104 -86 105 -87 118 -93 159 -79 39 12 62 55 52 94 -4 15 -46 58
-106 108 -55 45 -100 85 -100 89 0 4 43 42 96 85 100 81 114 98 114 136 -1 48
-64 90 -109 71z"/>
<path d="M1640 1733 c-25 -9 -50 -47 -50 -76 0 -32 28 -63 138 -151 39 -32 72
-62 72 -66 0 -4 -17 -20 -37 -36 -121 -92 -173 -146 -173 -181 0 -57 59 -93
111 -70 51 23 297 231 308 261 18 47 -9 82 -159 204 -133 107 -173 129 -210
115z"/>
</g>
</svg>
